<svg width="74" height="118" viewBox="0 0 74 118" fill="none" xmlns="http://www.w3.org/2000/svg">
<path d="M33.4645 40.5355C35.4171 42.4882 38.5829 42.4882 40.5355 40.5355L72.3553 8.71573C74.308 6.76311 74.308 3.59728 72.3553 1.64466C70.4027 -0.307961 67.2369 -0.307961 65.2843 1.64466L37 29.9289L8.71573 1.64466C6.76311 -0.307961 3.59728 -0.307961 1.64466 1.64466C-0.307961 3.59728 -0.307961 6.76311 1.64466 8.71573L33.4645 40.5355ZM32 36V37H42V36H32Z" fill="white" fill-opacity="0.25"/>
<path d="M33.4645 78.5355C35.4171 80.4882 38.5829 80.4882 40.5355 78.5355L72.3553 46.7157C74.308 44.7631 74.308 41.5973 72.3553 39.6447C70.4027 37.692 67.2369 37.692 65.2843 39.6447L37 67.9289L8.71573 39.6447C6.76311 37.692 3.59728 37.692 1.64466 39.6447C-0.307961 41.5973 -0.307961 44.7631 1.64466 46.7157L33.4645 78.5355ZM32 74V75H42V74H32Z" fill="white" fill-opacity="0.5"/>
<path d="M33.4645 116.536C35.4171 118.488 38.5829 118.488 40.5355 116.536L72.3553 84.7157C74.308 82.7631 74.308 79.5973 72.3553 77.6447C70.4027 75.692 67.2369 75.692 65.2843 77.6447L37 105.929L8.71573 77.6447C6.76311 75.692 3.59728 75.692 1.64466 77.6447C-0.307961 79.5973 -0.307961 82.7631 1.64466 84.7157L33.4645 116.536ZM32 112V113H42V112H32Z" fill="white"/>
</svg>
