<svg width="83" height="58" viewBox="0 0 83 58" fill="none" xmlns="http://www.w3.org/2000/svg">
<path d="M79.485 6.541H3.271C1.465 6.541 0 5.076 0 3.27C0 1.466 1.465 0 3.271 0H79.485C81.291 0 82.756 1.466 82.756 3.27C82.756 5.076 81.291 6.541 79.485 6.541Z" fill="white"/>
<path d="M79.485 31.943H3.271C1.465 31.943 0 30.479 0 28.673C0 26.869 1.465 25.402 3.271 25.402H79.485C81.291 25.402 82.756 26.868 82.756 28.673C82.756 30.479 81.291 31.943 79.485 31.943Z" fill="white"/>
<path d="M79.485 57.348H3.271C1.465 57.348 0 55.884 0 54.076C0 52.273 1.465 50.805 3.271 50.805H79.485C81.291 50.805 82.756 52.273 82.756 54.076C82.756 55.884 81.291 57.348 79.485 57.348Z" fill="white"/>
</svg>
