<svg width="100" height="100" viewBox="0 0 100 100" fill="none" xmlns="http://www.w3.org/2000/svg">
<path d="M78.1163 41.0458C77.367 41.0465 76.619 41.0917 75.8753 41.181C73.8563 34.6067 67.7915 30.1137 60.9144 30.0997C59.2025 30.0978 57.5028 30.3822 55.885 30.9394C51.8802 22.2795 42.389 17.573 33.0722 19.6269C23.7541 21.6813 17.1223 29.9413 17.1291 39.4819C17.1297 41.1309 17.3352 42.7731 17.7382 44.3706C8.86117 45.726 2.51866 53.6819 3.17859 62.6379C3.83731 71.5945 11.2765 78.537 20.2563 78.5768H78.1163C88.4802 78.5768 96.8814 70.1749 96.8814 59.811C96.8814 49.4471 88.4802 41.0458 78.1163 41.0458ZM78.1163 75.4489H20.2563C12.5468 75.4826 6.2471 69.3027 6.13211 61.5939C6.01774 53.885 12.1297 47.5211 19.8373 47.3248C20.3376 47.3107 20.8006 47.0581 21.0832 46.6452C21.367 46.2318 21.4349 45.7088 21.2667 45.2373C18.1627 36.3547 22.7798 26.6275 31.6245 23.4159C40.4685 20.2042 50.2514 24.7039 53.5695 33.5088C53.7211 33.9174 54.0355 34.2434 54.438 34.4098C54.841 34.5761 55.2942 34.5669 55.6893 34.3847C57.3266 33.6232 59.1095 33.2287 60.9144 33.2269C66.8643 33.2379 71.9878 37.4287 73.1762 43.2587C73.3462 44.1064 74.1719 44.6544 75.0184 44.4832C76.038 44.2789 77.0753 44.1749 78.1163 44.1737C86.753 44.1737 93.7542 51.1755 93.7542 59.811C93.7542 68.4477 86.753 75.4489 78.1163 75.4489Z" fill="white"/>
</svg>
