<svg width="100" height="100" viewBox="0 0 100 100" fill="none" xmlns="http://www.w3.org/2000/svg">
<path d="M50 0C22.43 0 0 22.43 0 50C0 77.57 22.43 100 50 100C77.57 100 100 77.57 100 50C100 22.43 77.5703 0 50 0ZM50 94.5945C37.7508 94.5945 26.6406 89.6296 18.5729 81.6079C15.3512 78.4044 12.6164 74.7125 10.487 70.655C7.24402 64.4762 5.40548 57.4491 5.40548 50C5.40548 25.4105 25.4105 5.40548 50 5.40548C61.6633 5.40548 72.2932 9.90824 80.248 17.2644C84.3724 21.078 87.7782 25.6578 90.234 30.7768C93.0279 36.6008 94.5945 43.1209 94.5945 50C94.5945 74.5895 74.5895 94.5945 50 94.5945Z" fill="white"/>
<path d="M32.9092 38.6492C35.8146 38.6492 38.1785 40.8779 38.1785 43.9185H43.584C43.584 37.8374 38.7954 33.2437 32.9092 33.2437C27.023 33.2437 22.2344 37.8374 22.2344 43.9185H27.6399C27.6399 40.8779 30.0041 38.6492 32.9092 38.6492Z" fill="white"/>
<path d="M67.0901 38.6492C69.9955 38.6492 72.3594 40.8779 72.3594 43.9185H77.7649C77.7649 37.8374 72.9763 33.2437 67.0901 33.2437C61.2039 33.2437 56.4153 37.8374 56.4153 43.9185H61.8208C61.8208 40.8779 64.1846 38.6492 67.0901 38.6492Z" fill="white"/>
<path d="M49.9044 77.7021C60.362 77.7021 70.3841 72.354 76.1223 63.4745L71.5821 60.5407C66.3131 68.6945 56.6717 73.2453 47.0233 72.1314C39.5022 71.2642 32.5471 66.931 28.4176 60.5407L23.8777 63.4745C28.8744 71.2074 37.2954 76.4507 46.4037 77.5011C47.5729 77.6362 48.7405 77.7021 49.9044 77.7021Z" fill="white"/>
</svg>
