<svg width="100" height="646" viewBox="0 0 100 646" fill="none" xmlns="http://www.w3.org/2000/svg">
<line x1="51.5" y1="89" x2="51.5" y2="568" stroke="#6002EE" stroke-width="3"/>
<circle cx="50" cy="596" r="50" fill="#6002EE"/>
<circle cx="50" cy="414" r="50" fill="#6002EE"/>
<circle cx="50" cy="232" r="50" fill="#6002EE"/>
<circle cx="50" cy="50" r="50" fill="#6002EE"/>
<path d="M62.75 607.125H57.6641V615H53.9375V607.125H37.2734V603.727L53.5391 580.547H57.6641V603.586H62.75V607.125ZM53.9375 603.586V592.195C53.9375 589.961 54.0156 587.438 54.1719 584.625H53.9844C53.2344 586.125 52.5312 587.367 51.875 588.352L41.1641 603.586H53.9375Z" fill="white"/>
<path d="M59.8438 406.797C59.8438 408.984 59.2266 410.773 57.9922 412.164C56.7734 413.555 55.0391 414.484 52.7891 414.953V415.141C55.5391 415.484 57.5781 416.359 58.9062 417.766C60.2344 419.172 60.8984 421.016 60.8984 423.297C60.8984 426.562 59.7656 429.078 57.5 430.844C55.2344 432.594 52.0156 433.469 47.8438 433.469C46.0312 433.469 44.3672 433.328 42.8516 433.047C41.3516 432.781 39.8906 432.305 38.4688 431.617V427.914C39.9531 428.648 41.5312 429.211 43.2031 429.602C44.8906 429.977 46.4844 430.164 47.9844 430.164C53.9062 430.164 56.8672 427.844 56.8672 423.203C56.8672 419.047 53.6016 416.969 47.0703 416.969H43.6953V413.617H47.1172C49.7891 413.617 51.9062 413.031 53.4688 411.859C55.0312 410.672 55.8125 409.031 55.8125 406.938C55.8125 405.266 55.2344 403.953 54.0781 403C52.9375 402.047 51.3828 401.57 49.4141 401.57C47.9141 401.57 46.5 401.773 45.1719 402.18C43.8438 402.586 42.3281 403.336 40.625 404.43L38.6562 401.805C40.0625 400.695 41.6797 399.828 43.5078 399.203C45.3516 398.562 47.2891 398.242 49.3203 398.242C52.6484 398.242 55.2344 399.008 57.0781 400.539C58.9219 402.055 59.8438 404.141 59.8438 406.797Z" fill="white"/>
<path d="M61.1328 251H38.6094V247.648L47.6328 238.578C50.3828 235.797 52.1953 233.812 53.0703 232.625C53.9453 231.438 54.6016 230.281 55.0391 229.156C55.4766 228.031 55.6953 226.82 55.6953 225.523C55.6953 223.695 55.1406 222.25 54.0312 221.188C52.9219 220.109 51.3828 219.57 49.4141 219.57C47.9922 219.57 46.6406 219.805 45.3594 220.273C44.0938 220.742 42.6797 221.594 41.1172 222.828L39.0547 220.18C42.2109 217.555 45.6484 216.242 49.3672 216.242C52.5859 216.242 55.1094 217.07 56.9375 218.727C58.7656 220.367 59.6797 222.578 59.6797 225.359C59.6797 227.531 59.0703 229.68 57.8516 231.805C56.6328 233.93 54.3516 236.617 51.0078 239.867L43.5078 247.203V247.391H61.1328V251Z" fill="white"/>
<path d="M53.0234 69H49.2266V44.5781C49.2266 42.5469 49.2891 40.625 49.4141 38.8125C49.0859 39.1406 48.7188 39.4844 48.3125 39.8438C47.9062 40.2031 46.0469 41.7266 42.7344 44.4141L40.6719 41.7422L49.7422 34.7344H53.0234V69Z" fill="white"/>
</svg>
