<svg width="30" height="36" viewBox="0 0 30 36" fill="none" xmlns="http://www.w3.org/2000/svg">
<path d="M9.52358 10C9.17848 10 8.90638 10.2699 8.90638 10.6123V10.7983C8.90638 11.1406 9.17845 11.4105 9.52358 11.4105H15.6331C15.9782 11.4105 16.2424 11.1406 16.2424 10.7983V10.6123C16.2424 10.2699 15.9782 10 15.6331 10H9.52358ZM6.65632 10.434C5.41517 10.434 4.40632 11.427 4.40632 12.6583V18.2616H4.96103V12.6583C4.96103 11.7193 5.70977 10.9765 6.65632 10.9765H8.36727C8.35792 10.9181 8.35165 10.8591 8.35165 10.7983V10.6123C8.35165 10.5514 8.35792 10.4925 8.36727 10.434H6.65632V10.434ZM16.7813 10.434C16.7906 10.4925 16.797 10.5514 16.797 10.6123V10.7983C16.797 10.8591 16.7906 10.9181 16.7813 10.9765H18.4923C19.4388 10.9765 20.1954 11.7193 20.1954 12.6582V18.2615H20.7423V12.6582C20.7423 11.427 19.7334 10.434 18.4923 10.434H16.7813V10.434ZM2.00007 18.804V20.2145H2.85162H22.2891H23.1485V18.804H2H2.00007ZM3.21882 20.7647L5.28132 30.8784H20.0078L21.9375 20.7647H3.21877H3.21882ZM7.48432 22.183H7.67182C8.01692 22.183 8.28902 22.4528 8.28902 22.7952V28.8479C8.28902 29.1903 8.01695 29.4602 7.67182 29.4602H7.48432C7.13925 29.4602 6.86713 29.1903 6.86713 28.8479V22.7952C6.86713 22.4528 7.13925 22.183 7.48432 22.183ZM12.4843 22.183H12.6718C13.0169 22.183 13.289 22.4528 13.289 22.7952V28.8479C13.289 29.1903 13.0169 29.4602 12.6718 29.4602H12.4843C12.1392 29.4602 11.8671 29.1903 11.8671 28.8479V22.7952C11.8671 22.4528 12.1392 22.183 12.4843 22.183ZM17.4843 22.183H17.6718C18.0169 22.183 18.289 22.4528 18.289 22.7952V28.8479C18.289 29.1903 18.0169 29.4602 17.6718 29.4602H17.4843C17.1392 29.4602 16.8671 29.1903 16.8671 28.8479V22.7952C16.8671 22.4528 17.1392 22.183 17.4843 22.183Z" fill="#6002EE"/>
<path d="M29.5224 4.052V6.248H26.2284V9.92H23.7984V6.248H20.4864V4.052H23.7984V0.397999H26.2284V4.052H29.5224Z" fill="#6002EE"/>
</svg>
