<svg width="23" height="22" viewBox="0 0 23 22" fill="none" xmlns="http://www.w3.org/2000/svg">
<path d="M8.44936 0.961151C8.10426 0.961151 7.83216 1.23106 7.83216 1.5734V1.7594C7.83216 2.10172 8.10423 2.37167 8.44936 2.37167H14.5589C14.904 2.37167 15.1682 2.10174 15.1682 1.7594V1.5734C15.1682 1.23109 14.904 0.961151 14.5589 0.961151H8.44936ZM5.58211 1.39515C4.34096 1.39515 3.33211 2.38818 3.33211 3.6194V9.22273H3.88681V3.6194C3.88681 2.68047 4.63556 1.93767 5.58211 1.93767H7.29306C7.2837 1.87929 7.27743 1.8203 7.27743 1.75942V1.57342C7.27743 1.51253 7.2837 1.45367 7.29306 1.39517H5.58211V1.39515ZM15.7071 1.39515C15.7163 1.45366 15.7227 1.51252 15.7227 1.5734V1.7594C15.7227 1.82028 15.7163 1.87927 15.7071 1.93765H17.4181C18.3646 1.93765 19.1212 2.68046 19.1212 3.61939V9.2227H19.6681V3.61939C19.6681 2.38819 18.6592 1.39512 17.4181 1.39512H15.7071V1.39515ZM0.925856 9.76515V11.1756H1.77741H21.2149H22.0743V9.76515H0.925781H0.925856ZM2.14461 11.7259L4.20711 21.8396H18.9336L20.8633 11.7259H2.14456H2.14461ZM6.41011 13.1441H6.59761C6.94271 13.1441 7.21481 13.414 7.21481 13.7564V19.8091C7.21481 20.1514 6.94273 20.4213 6.59761 20.4213H6.41011C6.06503 20.4213 5.79291 20.1514 5.79291 19.8091V13.7564C5.79291 13.414 6.06503 13.1441 6.41011 13.1441V13.1441ZM11.4101 13.1441H11.5976C11.9427 13.1441 12.2148 13.414 12.2148 13.7564V19.8091C12.2148 20.1514 11.9427 20.4213 11.5976 20.4213H11.4101C11.065 20.4213 10.7929 20.1514 10.7929 19.8091V13.7564C10.7929 13.414 11.065 13.1441 11.4101 13.1441V13.1441ZM16.4101 13.1441H16.5976C16.9427 13.1441 17.2148 13.414 17.2148 13.7564V19.8091C17.2148 20.1514 16.9427 20.4213 16.5976 20.4213H16.4101C16.065 20.4213 15.7929 20.1514 15.7929 19.8091V13.7564C15.7929 13.414 16.065 13.1441 16.4101 13.1441V13.1441Z" fill="white"/>
</svg>
