<svg width="48" height="48" viewBox="0 0 48 48" fill="none" xmlns="http://www.w3.org/2000/svg">
<path d="M35.4498 22H17.3498L21.9998 17.35C22.7998 16.55 22.7998 15.3 21.9998 14.55C21.1998 13.75 19.9498 13.75 19.1998 14.55L11.1498 22.6C10.3498 23.4 10.3498 24.65 11.1498 25.4L19.1998 33.45C19.5998 33.85 20.0998 34.05 20.5998 34.05C21.0998 34.05 21.5998 33.85 21.9998 33.45C22.7998 32.65 22.7998 31.4 21.9998 30.65L17.3498 26H35.4498C36.5498 26 37.4498 25.1 37.4498 24C37.4498 22.9 36.5498 22 35.4498 22Z" fill="#6002EE"/>
<path d="M24 0.25C10.9 0.25 0.25 10.9 0.25 24C0.25 37.1 10.9 47.75 24 47.75C37.1 47.75 47.75 37.1 47.75 24C47.75 10.9 37.1 0.25 24 0.25ZM24 43.8C13.1 43.8 4.2 34.95 4.2 24C4.2 13.05 13.1 4.2 24 4.2C34.9 4.2 43.8 13.1 43.8 24C43.8 34.9 34.9 43.8 24 43.8Z" fill="#6002EE"/>
</svg>
