<svg width="100" height="100" viewBox="0 0 100 100" fill="none" xmlns="http://www.w3.org/2000/svg">
<g clip-path="url(#clip0)">
<path d="M82.1884 11.4411V8.12608C82.1884 3.53776 78.4554 -0.195312 73.867 -0.195312H21.6025C17.0142 -0.195312 13.2811 3.53776 13.2811 8.12608V91.4827C13.2811 96.0718 17.0142 99.8049 21.6025 99.8049H73.867C78.4554 99.8049 82.1884 96.0718 82.1884 91.4827V53.4524C82.1884 52.6322 81.5239 51.9677 80.7038 51.9677C79.8828 51.9677 79.2183 52.6322 79.2183 53.4524V91.4827C79.2183 94.4338 76.8181 96.8348 73.867 96.8348H21.6025C18.6522 96.8348 16.2513 94.4338 16.2513 91.4827V8.12608C16.2513 5.17579 18.6522 2.77482 21.6025 2.77482H73.867C76.8181 2.77482 79.2183 5.17579 79.2183 8.12608V47.5114C79.2183 48.3315 79.8828 48.9968 80.7038 48.9968C81.5239 48.9968 82.1884 48.3315 82.1884 47.5114V37.3849C84.7931 36.8989 86.7722 34.6101 86.7722 31.8673V16.9587C86.7722 14.2151 84.7931 11.9271 82.1884 11.4411ZM83.8013 31.8673C83.8013 32.959 83.136 33.899 82.1884 34.3018V14.5241C83.136 14.9269 83.8013 15.8661 83.8013 16.9587V31.8673Z" fill="white"/>
<path d="M43.2793 91.2416C43.2793 93.6983 45.2782 95.6964 47.7349 95.6964C50.1915 95.6964 52.1905 93.6983 52.1905 91.2416C52.1905 88.7849 50.1915 86.786 47.7349 86.786C45.2782 86.786 43.2793 88.7849 43.2793 91.2416ZM49.2203 91.2416C49.2203 92.0602 48.5535 92.7263 47.7349 92.7263C46.9162 92.7263 46.2502 92.0602 46.2502 91.2416C46.2502 90.4222 46.9162 89.7561 47.7349 89.7561C48.5535 89.7561 49.2203 90.4222 49.2203 91.2416Z" fill="white"/>
<path d="M55.4573 9.85947C56.2774 9.85947 56.942 9.19419 56.942 8.37403C56.942 7.55386 56.2774 6.88858 55.4573 6.88858H40.0123C39.1921 6.88858 38.5269 7.55386 38.5269 8.37403C38.5269 9.19419 39.1921 9.85947 40.0123 9.85947H55.4573Z" fill="white"/>
<path d="M34.6588 9.83047C35.2585 9.70535 35.7315 9.22469 35.8345 8.61892C35.9421 7.98339 35.6094 7.33794 35.0365 7.04879C34.5016 6.77794 33.8356 6.86492 33.3855 7.26088C32.9063 7.68203 32.7553 8.38698 33.0101 8.96987C33.2847 9.59701 33.9844 9.97085 34.6588 9.83047Z" fill="white"/>
<path d="M76.397 78.4181V22.0887C76.397 18.4571 73.4421 15.5022 69.8105 15.5022H25.6591C22.0275 15.5022 19.0726 18.4571 19.0726 22.0887V78.4181C19.0726 82.0497 22.0275 85.0038 25.6591 85.0038H30.9036C31.7245 85.0038 32.389 84.3385 32.389 83.5184C32.389 82.6982 31.7245 82.0337 30.9036 82.0337H25.6591C23.6655 82.0337 22.0435 80.4117 22.0435 78.4181V22.0887C22.0435 20.0943 23.6648 18.4723 25.6591 18.4723H69.8113C71.8048 18.4723 73.4268 20.0943 73.4268 22.0887V78.4181C73.4268 80.4117 71.8048 82.0337 69.8113 82.0337H36.8446C36.0244 82.0337 35.3599 82.6982 35.3599 83.5184C35.3599 84.3385 36.0244 85.0038 36.8446 85.0038H69.8113C73.4421 85.0038 76.397 82.0497 76.397 78.4181Z" fill="white"/>
<path d="M58.0644 53.2289C58.6442 52.6491 58.6442 51.7091 58.0644 51.1293C57.4845 50.5495 56.5446 50.5487 55.964 51.1293C51.426 55.6665 44.0423 55.6665 39.5051 51.1293C38.9245 50.5487 37.9845 50.5487 37.4047 51.1293C36.8241 51.7091 36.8241 52.6491 37.4047 53.2289C40.2527 56.077 43.9934 57.5014 47.7341 57.5014C51.4756 57.5014 55.2163 56.077 58.0644 53.2289Z" fill="white"/>
<path d="M31.5627 33.0567V39.3632C31.5627 40.1833 32.228 40.8479 33.0482 40.8479C33.8684 40.8479 34.5336 40.1833 34.5336 39.3632V33.0567C34.5336 32.2365 33.8684 31.572 33.0482 31.572C32.228 31.572 31.5627 32.2365 31.5627 33.0567Z" fill="white"/>
<path d="M63.9062 39.3632V33.0567C63.9062 32.2365 63.2409 31.572 62.4207 31.572C61.6006 31.572 60.936 32.2365 60.936 33.0567V39.3632C60.936 40.1833 61.6006 40.8479 62.4207 40.8479C63.2409 40.8479 63.9062 40.1833 63.9062 39.3632Z" fill="white"/>
</g>
<defs>
<clipPath id="clip0">
<rect width="100" height="100" fill="white"/>
</clipPath>
</defs>
</svg>
