<svg height="511pt" viewBox="-67 1 511 511.99899" width="511pt" xmlns="http://www.w3.org/2000/svg"><path d="m353.304688 59.578125v-16.972656c0-23.492188-19.113282-42.605469-42.605469-42.605469h-267.59375c-23.492188 0-42.605469 19.113281-42.605469 42.605469v426.785156c0 23.496094 19.113281 42.609375 42.605469 42.609375h267.59375c23.492187 0 42.605469-19.113281 42.605469-42.609375v-194.714844c0-4.199219-3.402344-7.601562-7.601563-7.601562-4.203125 0-7.605469 3.402343-7.605469 7.601562v194.714844c0 15.109375-12.289062 27.402344-27.398437 27.402344h-267.59375c-15.105469 0-27.398438-12.292969-27.398438-27.402344v-426.785156c0-15.105469 12.292969-27.398438 27.398438-27.398438h267.59375c15.109375 0 27.398437 12.292969 27.398437 27.398438v201.652343c0 4.199219 3.402344 7.605469 7.605469 7.605469 4.199219 0 7.601563-3.40625 7.601563-7.605469v-51.847656c13.335937-2.488281 23.46875-14.207031 23.46875-28.25v-76.332031c0-14.046875-10.132813-25.761719-23.46875-28.25zm8.257812 104.582031c0 5.589844-3.40625 10.402344-8.257812 12.464844v-101.261719c4.851562 2.0625 8.257812 6.871094 8.257812 12.464844zm0 0"/><path d="m154.089844 468.15625c0 12.578125 10.234375 22.808594 22.8125 22.808594s22.8125-10.230469 22.8125-22.808594-10.234375-22.8125-22.8125-22.8125-22.8125 10.234375-22.8125 22.8125zm30.417968 0c0 4.191406-3.414062 7.601562-7.605468 7.601562s-7.601563-3.410156-7.601563-7.601562c0-4.195312 3.410157-7.605469 7.601563-7.605469s7.605468 3.410157 7.605468 7.605469zm0 0"/><path d="m216.441406 51.480469c4.199219 0 7.601563-3.40625 7.601563-7.605469s-3.402344-7.605469-7.601563-7.605469h-79.078125c-4.199219 0-7.605469 3.40625-7.605469 7.605469s3.40625 7.605469 7.605469 7.605469zm0 0"/><path d="m109.953125 51.332031c3.070313-.640625 5.492187-3.101562 6.019531-6.203125.550782-3.253906-1.152344-6.558594-4.085937-8.039062-2.738281-1.386719-6.148438-.941406-8.453125 1.085937-2.453125 2.15625-3.226563 5.765625-1.921875 8.75 1.40625 3.210938 4.988281 5.125 8.441406 4.40625zm0 0"/><path d="m323.652344 402.5v-288.40625c0-18.59375-15.128906-33.722656-33.722656-33.722656h-226.054688c-18.59375 0-33.722656 15.128906-33.722656 33.722656v288.40625c0 18.59375 15.128906 33.71875 33.722656 33.71875h26.851562c4.203126 0 7.605469-3.40625 7.605469-7.605469s-3.402343-7.601562-7.605469-7.601562h-26.851562c-10.207031 0-18.511719-8.304688-18.511719-18.511719v-288.40625c0-10.210938 8.300781-18.515625 18.511719-18.515625h226.058594c10.207031 0 18.511718 8.304687 18.511718 18.515625v288.40625c0 10.207031-8.304687 18.511719-18.511718 18.511719h-168.789063c-4.199219 0-7.601562 3.402343-7.601562 7.601562s3.402343 7.605469 7.601562 7.605469h168.789063c18.589844 0 33.71875-15.125 33.71875-33.71875zm0 0"/><path d="m229.789062 273.53125c2.96875-2.96875 2.96875-7.78125 0-10.75s-7.78125-2.972656-10.753906 0c-23.234375 23.230469-61.039062 23.230469-84.269531 0-2.972656-2.972656-7.785156-2.972656-10.753906 0-2.972657 2.96875-2.972657 7.78125 0 10.75 14.582031 14.582031 33.734375 21.875 52.886719 21.875 19.15625 0 38.308593-7.292969 52.890624-21.875zm0 0"/><path d="m94.101562 170.25v32.289062c0 4.199219 3.40625 7.601563 7.605469 7.601563s7.605469-3.402344 7.605469-7.601563v-32.289062c0-4.199219-3.40625-7.601562-7.605469-7.601562s-7.605469 3.402343-7.605469 7.601562zm0 0"/><path d="m259.699219 202.539062v-32.289062c0-4.199219-3.40625-7.601562-7.605469-7.601562s-7.601562 3.402343-7.601562 7.601562v32.289062c0 4.199219 3.402343 7.601563 7.601562 7.601563s7.605469-3.402344 7.605469-7.601563zm0 0"/></svg>